<svg width="34" height="34" viewBox="0 0 34 34" fill="none" xmlns="http://www.w3.org/2000/svg">
<path d="M17.0017 33.6666C7.79688 33.6666 0.334967 26.2046 0.334967 16.9999C0.334967 7.79517 7.79688 0.333252 17.0017 0.333252C26.2063 0.333252 33.6683 7.79517 33.6683 16.9999C33.6683 26.2046 26.2063 33.6666 17.0017 33.6666ZM11.8186 18.9513L11.8396 18.9379C12.8058 22.1278 13.2889 23.7228 13.2889 23.7228C13.4761 24.2403 13.7333 24.3326 14.0455 24.2904C14.3575 24.2481 14.5232 24.0793 14.7268 23.8828C14.7268 23.8828 15.3873 23.2453 16.7083 21.9704L20.9598 25.1163C21.7345 25.5443 22.2938 25.3234 22.4862 24.3961L25.2492 11.3606C25.5542 10.1473 25.0192 9.66065 24.0783 10.0458L7.85662 16.3118C6.74993 16.7566 6.75528 17.3758 7.65513 17.6518L11.8186 18.9513Z" fill="white"/>
</svg>
