<svg width="30" height="30" viewBox="0 0 30 30" fill="none" xmlns="http://www.w3.org/2000/svg">
<path d="M2.1 2.1C3.97364e-07 4.22 0 7.61 0 14.4V15.6C0 22.38 3.97364e-07 25.77 2.1 27.9C4.22 30 7.61 30 14.4 30H15.6C22.38 30 25.77 30 27.9 27.9C30 25.78 30 22.39 30 15.6V14.4C30 7.62 30 4.23 27.9 2.1C25.78 3.97364e-07 22.39 0 15.6 0H14.4C7.62 0 4.23 3.97364e-07 2.1 2.1ZM5.06022 9.13028H8.50022C8.61022 14.8503 11.1302 17.2703 13.1302 17.7703V9.13028H16.3602V14.0603C18.3302 13.8503 20.4102 11.6003 21.1102 9.12028H24.3302C24.0677 10.404 23.5432 11.6199 22.7895 12.6918C22.036 13.7637 21.0693 14.6687 19.9502 15.3503C21.1992 15.9718 22.3022 16.8512 23.1863 17.9303C24.0707 19.0093 24.7162 20.2635 25.0802 21.6103H21.5302C20.7702 19.2403 18.8702 17.4003 16.3602 17.1503V21.6103H15.9702H15.9602C9.12022 21.6103 5.22022 16.9303 5.06022 9.13028Z" fill="white"/>
</svg>
