<svg width="34" height="34" viewBox="0 0 34 34" fill="none" xmlns="http://www.w3.org/2000/svg">
<path d="M17.0017 0.333252C26.2063 0.333252 33.6683 7.79517 33.6683 16.9999C33.6683 26.2046 26.2063 33.6666 17.0017 33.6666C13.9452 33.6666 11.0809 32.8439 8.6181 31.4077L0.341936 33.6666L2.5952 25.3858C1.15824 22.9226 0.334969 20.0574 0.334969 16.9999C0.334969 7.79517 7.79689 0.333252 17.0017 0.333252ZM10.9872 9.18047C10.7716 9.19562 10.5601 9.24829 10.3676 9.34677C10.2232 9.42065 10.0891 9.52744 9.87848 9.72635C9.67957 9.91417 9.56428 10.0782 9.44282 10.2364C8.82665 11.0386 8.49548 12.0233 8.50163 13.0349C8.50498 13.8526 8.71738 14.6473 9.05282 15.3893C9.73303 16.8939 10.8548 18.4846 12.3366 19.9598C12.6925 20.3141 13.0412 20.6723 13.4172 21.0033C15.2563 22.6226 17.448 23.7903 19.8178 24.4136C19.8178 24.4136 20.7512 24.5569 20.7648 24.5578C21.074 24.5744 21.3827 24.5521 21.6922 24.5362C22.1777 24.5112 22.6517 24.3799 23.0807 24.1514C23.3565 24.0046 23.487 23.9316 23.7185 23.7856C23.7185 23.7856 23.7895 23.7376 23.9265 23.6356C24.1515 23.4679 24.2905 23.3499 24.4777 23.1556C24.6157 23.0123 24.7343 22.8429 24.826 22.6521C24.9563 22.3801 25.0875 21.8609 25.1397 21.4298C25.1795 21.1004 25.1675 20.9204 25.1632 20.8089C25.156 20.6296 25.0078 20.4451 24.8455 20.3668L23.8763 19.9311C23.8763 19.9311 22.4272 19.3004 21.5408 18.8961C21.4485 18.8539 21.3475 18.8344 21.246 18.8283C21.0237 18.8146 20.7745 18.8726 20.616 19.0396C20.6077 19.0363 20.4973 19.1316 19.2915 20.5924C19.225 20.6719 19.0692 20.8448 18.7997 20.8286C18.759 20.8258 18.7185 20.8199 18.679 20.8096C18.5698 20.7808 18.4635 20.7428 18.3595 20.6988C18.1533 20.6113 18.081 20.5781 17.9402 20.5174C16.978 20.0971 16.095 19.5348 15.3145 18.8466C15.1052 18.6623 14.9105 18.4638 14.7098 18.2693C14.0095 17.5904 13.4362 16.8684 13.0096 16.1563C12.9863 16.1174 12.9505 16.0613 12.9118 15.9984C12.842 15.8849 12.765 15.7499 12.7409 15.6573C12.679 15.4121 12.8433 15.2151 12.8433 15.2151C12.8433 15.2151 13.249 14.7716 13.4375 14.5304C13.6188 14.2983 13.7753 14.0713 13.875 13.9094C14.0713 13.5938 14.1335 13.2676 14.0303 13.016C13.5627 11.876 13.0803 10.7422 12.5831 9.61482C12.485 9.39233 12.1931 9.23068 11.9277 9.20004C11.8378 9.18965 11.7479 9.17922 11.6577 9.17328C11.4342 9.16238 11.2103 9.16479 10.9872 9.18047Z" fill="white"/>
</svg>
