<svg width="222" height="108" viewBox="0 0 222 108" fill="none" xmlns="http://www.w3.org/2000/svg">
<path d="M196.945 70.8551C190.694 70.8551 185.26 68.4987 180.691 63.6898C176.075 58.8808 173.814 53.1101 173.814 46.2814C173.814 39.4527 176.075 33.6339 180.691 28.825C185.26 24.016 190.694 21.6597 196.945 21.6597C198.677 21.6597 200.408 21.852 202.091 22.2848C203.774 22.7176 205.217 23.2466 206.371 23.8718C207.525 24.4969 208.583 25.1221 209.497 25.7954C210.459 26.4686 211.084 26.9976 211.468 27.3823L212.142 28.1036V22.6695H222L222 107.067H212.142L212.142 64.5073C211.709 64.9401 211.084 65.5172 210.266 66.2866C209.449 67.0079 207.717 67.9697 205.024 69.1239C202.38 70.278 199.687 70.8551 196.945 70.8551ZM197.907 30.5562C194.156 30.5562 190.838 32.0951 187.953 35.1728C185.067 38.2505 183.625 41.9534 183.625 46.2814C183.625 50.6095 185.067 54.3604 187.953 57.4381C190.838 60.5159 194.156 62.0547 197.907 62.0547C201.658 62.0547 204.976 60.5159 207.862 57.4381C210.747 54.3604 212.19 50.6095 212.19 46.2814C212.19 41.9534 210.747 38.2505 207.862 35.1728C204.976 32.0951 201.658 30.5562 197.907 30.5562Z" fill="white"/>
<path d="M167.389 22.6215V69.8934H157.531V22.6215H167.389ZM168.399 7.85811C168.399 9.58933 167.822 10.9839 166.716 12.09C165.562 13.2441 164.167 13.7731 162.484 13.7731C160.753 13.7731 159.358 13.2441 158.252 12.09C157.098 10.9839 156.569 9.58933 156.569 7.85811C156.569 6.17498 157.098 4.78039 158.252 3.67434C159.358 2.52019 160.753 1.99121 162.484 1.99121C164.167 1.99121 165.562 2.52019 166.716 3.67434C167.822 4.78039 168.399 6.17498 168.399 7.85811Z" fill="white"/>
<path d="M127.976 21.6115C134.227 21.6115 139.613 24.016 144.23 28.8249C148.798 33.6339 151.107 39.4046 151.107 46.2333C151.107 53.062 148.798 58.8808 144.182 63.6897C139.565 68.4987 134.179 70.855 127.976 70.855C126.196 70.855 124.465 70.6627 122.782 70.2299C121.099 69.8452 119.656 69.3162 118.502 68.691C117.3 68.0659 116.242 67.4407 115.328 66.7674C114.414 66.0942 113.789 65.5652 113.404 65.1805L112.683 64.4592V69.8933H102.873V0.933105H112.683V28.0555C113.116 27.6227 113.741 27.0456 114.607 26.2762C115.424 25.5549 117.155 24.5931 119.848 23.3908C122.493 22.2367 125.186 21.6115 127.976 21.6115ZM126.966 62.0066C130.717 62.0066 134.035 60.4677 136.92 57.39C139.806 54.3123 141.248 50.6094 141.248 46.2814C141.248 41.9533 139.806 38.2024 136.92 35.1246C134.035 32.0469 130.717 30.5081 126.966 30.5081C123.215 30.5081 119.897 32.0469 117.011 35.1246C114.126 38.2024 112.683 41.9533 112.683 46.2814C112.683 50.6094 114.126 54.3123 117.011 57.39C119.897 60.4677 123.215 62.0066 126.966 62.0066Z" fill="white"/>
<path d="M82.6462 69.8934V64.9883L82.0211 65.6135C81.7325 65.902 81.1074 66.3829 80.1937 67.0562C79.28 67.7294 78.3182 68.3065 77.2602 68.8355C76.2022 69.3644 74.8557 69.8453 73.2688 70.2301C71.6338 70.6629 69.9987 70.8552 68.3637 70.8552C62.641 70.8552 58.0245 69.0278 54.4659 65.2769C50.9072 61.5259 49.176 56.5246 49.176 50.1768V22.6216H59.0343V50.1768C59.0343 53.5911 60.0923 56.4284 62.2563 58.6405C64.4204 60.9007 67.1134 62.0068 70.3353 62.0068C74.0863 62.0068 77.0679 60.8045 79.28 58.4001C81.4921 55.9956 82.6462 52.5813 82.6462 48.2051V22.6216H92.5045V69.8934H82.6462Z" fill="white"/>
<path d="M0 46.2814C0 39.6451 2.40447 33.9225 7.30958 29.0173C12.2147 24.1122 17.9854 21.6597 24.6218 21.6597C28.2765 21.6597 31.739 22.4291 34.9129 24.016C38.0868 25.603 40.347 27.1899 41.7416 28.7769L43.8094 31.0371L37.4135 37.433C37.0769 36.904 36.596 36.2788 35.9228 35.5094C35.2495 34.74 33.8549 33.7301 31.6428 32.4798C29.4307 31.1814 27.1224 30.5562 24.6218 30.5562C20.5822 30.5562 17.1198 32.047 14.1864 35.1247C11.2529 38.1543 9.81023 41.8572 9.81023 46.2814C9.81023 50.7057 11.2529 54.4085 14.1864 57.4863C17.1198 60.5159 20.5822 62.0547 24.6218 62.0547C27.1224 62.0547 29.4307 61.4296 31.6428 60.1793C33.8549 58.9289 35.4419 57.6786 36.4036 56.5245L37.8944 54.6971L44.2903 61.093C44.0979 61.3334 43.8094 61.67 43.4247 62.1509C43.04 62.6318 42.1744 63.4012 40.924 64.5073C39.6256 65.6134 38.2791 66.5751 36.8845 67.4408C35.4419 68.3064 33.6145 69.0758 31.4024 69.7971C29.1422 70.5185 26.882 70.9032 24.6218 70.9032C17.9854 70.9032 12.2147 68.4506 7.30958 63.5455C2.40447 58.6404 0 52.9178 0 46.2814Z" fill="white"/>
<path d="M188.888 90.3972C188.888 92.4891 189.573 94.2744 190.962 95.7531C192.332 97.2319 193.919 97.9532 195.723 97.9532C197.418 97.9532 198.951 97.2139 200.321 95.7351C201.692 94.2564 202.377 92.471 202.377 90.3972C202.377 88.3233 201.692 86.538 200.321 85.0593C198.951 83.5805 197.418 82.8231 195.723 82.8231C193.919 82.8231 192.314 83.5625 190.944 85.0412C189.573 86.52 188.888 88.3053 188.888 90.3972ZM188.888 95.7351V107.006H187.229V81.5247H188.888V85.0412C188.924 84.9511 189.014 84.8248 189.14 84.6445C189.267 84.4642 189.537 84.1576 189.952 83.6887C190.367 83.2379 190.817 82.8411 191.322 82.5165C191.809 82.1919 192.44 81.8673 193.234 81.5788C194.027 81.2903 194.857 81.146 195.723 81.146C197.887 81.146 199.798 82.0657 201.493 83.8691C203.188 85.6904 204.036 87.8725 204.036 90.3972C204.036 92.9219 203.188 95.1039 201.493 96.9073C199.798 98.7106 197.887 99.6123 195.723 99.6123C194.857 99.6123 194.027 99.4861 193.234 99.2156C192.44 98.9451 191.809 98.6205 191.304 98.2598C190.799 97.8991 190.349 97.5204 189.97 97.1237C189.591 96.745 189.321 96.4204 189.158 96.1499L188.888 95.7351Z" fill="white"/>
<path d="M181.123 99.2517V88.7201C181.123 86.9168 180.636 85.4921 179.699 84.4281C178.761 83.3642 177.571 82.8231 176.146 82.8231C174.613 82.8231 173.333 83.4183 172.323 84.5724C171.295 85.7446 170.79 87.3135 170.79 89.2791V99.2517H169.131V88.7201C169.131 86.9168 168.644 85.4921 167.706 84.4281C166.751 83.3642 165.56 82.8231 164.136 82.8231C162.603 82.8231 161.322 83.4183 160.313 84.5724C159.285 85.7446 158.78 87.3135 158.78 89.2791V99.2517H157.121V81.5247H158.78V84.1035C158.816 84.0314 158.888 83.9412 158.96 83.797C159.032 83.6707 159.231 83.4363 159.537 83.0756C159.844 82.733 160.186 82.4264 160.565 82.1739C160.944 81.9215 161.449 81.687 162.098 81.4706C162.747 81.2542 163.414 81.1641 164.136 81.1641C164.965 81.1641 165.741 81.3083 166.444 81.5969C167.147 81.8854 167.706 82.21 168.139 82.6067C168.572 83.0035 168.933 83.4002 169.221 83.797C169.51 84.1937 169.726 84.5183 169.87 84.7888L170.051 85.2396C170.087 85.1314 170.159 84.9872 170.231 84.8068C170.303 84.6265 170.501 84.3019 170.844 83.833C171.169 83.3642 171.547 82.9494 171.944 82.5887C172.341 82.228 172.918 81.9034 173.675 81.6149C174.433 81.3083 175.244 81.1641 176.146 81.1641C178.039 81.1641 179.626 81.8313 180.889 83.2018C182.151 84.5544 182.782 86.3938 182.782 88.7201V99.2517H181.123Z" fill="white"/>
<path d="M144.017 89.2791L151.032 88.1791C151.032 86.6642 150.545 85.3839 149.607 84.356C148.652 83.3461 147.461 82.8231 146.037 82.8231C145.063 82.8231 144.161 83.0395 143.296 83.4723C142.43 83.9051 141.817 84.3379 141.42 84.7707L140.879 85.4019L139.761 84.3019C139.833 84.2297 139.923 84.1215 140.032 83.9773C140.14 83.833 140.41 83.5625 140.807 83.2018C141.204 82.8411 141.637 82.5346 142.105 82.246C142.556 81.9575 143.133 81.705 143.855 81.4886C144.576 81.2722 145.297 81.146 146.037 81.146C147.93 81.146 149.517 81.8313 150.78 83.1657C152.042 84.5183 152.691 86.1954 152.691 88.1791V99.2516H151.032V96.2941C150.978 96.4023 150.888 96.5286 150.78 96.6728C150.671 96.8171 150.419 97.0876 150.022 97.4663C149.625 97.845 149.211 98.1877 148.76 98.4762C148.291 98.7828 147.696 99.0533 146.938 99.2697C146.181 99.5041 145.388 99.6123 144.558 99.6123C142.863 99.6123 141.456 99.1254 140.338 98.1336C139.22 97.1417 138.661 95.9695 138.661 94.6351C138.661 93.2645 139.13 92.0743 140.104 91.1005C141.059 90.1267 142.358 89.5316 144.017 89.2791ZM144.558 97.9532C146.397 97.9532 147.948 97.3401 149.175 96.1138C150.401 94.8875 151.032 93.3547 151.032 91.4972V89.8381L144.378 90.9382C141.673 91.389 140.32 92.6153 140.32 94.6351C140.32 95.5367 140.717 96.3122 141.51 96.9614C142.304 97.6286 143.332 97.9532 144.558 97.9532Z" fill="white"/>
<path d="M121.861 90.3792C121.861 87.8184 122.709 85.6544 124.44 83.8511C126.171 82.0477 128.191 81.1641 130.535 81.1641C131.401 81.1641 132.23 81.2903 133.024 81.5428C133.817 81.7952 134.485 82.1198 135.008 82.4805C135.513 82.8412 135.981 83.1838 136.396 83.5445C136.793 83.9052 137.081 84.2117 137.262 84.5003L137.568 84.8609L136.27 85.979C136.216 85.9069 136.144 85.7806 136.036 85.6364C135.927 85.4921 135.711 85.2396 135.35 84.879C134.99 84.5183 134.611 84.2117 134.214 83.9232C133.799 83.6347 133.258 83.3822 132.609 83.1658C131.942 82.9494 131.257 82.8231 130.535 82.8231C128.66 82.8231 127.019 83.5625 125.612 85.0413C124.206 86.52 123.52 88.3053 123.52 90.3972C123.52 92.4891 124.224 94.2744 125.63 95.7532C127.037 97.2319 128.66 97.9533 130.535 97.9533C131.689 97.9533 132.735 97.7008 133.691 97.1598C134.629 96.6368 135.314 96.1138 135.711 95.5909L136.27 94.8154L137.568 95.9335C137.496 96.0417 137.388 96.1679 137.262 96.3483C137.136 96.5286 136.847 96.8172 136.414 97.2319C135.963 97.6467 135.495 98.0074 135.008 98.332C134.503 98.6566 133.853 98.9451 133.042 99.2156C132.23 99.4861 131.401 99.6123 130.535 99.6123C128.191 99.6123 126.153 98.7287 124.44 96.9254C122.709 95.122 121.861 92.9399 121.861 90.3792Z" fill="white"/>
<path d="M117.053 98.1514C117.053 97.7908 117.161 97.4842 117.414 97.2317C117.666 96.9793 117.973 96.853 118.352 96.853C118.712 96.853 119.019 96.9793 119.271 97.2317C119.506 97.4842 119.632 97.7908 119.632 98.1514C119.632 98.5121 119.506 98.8187 119.271 99.0711C119.019 99.3236 118.712 99.4318 118.352 99.4318C117.973 99.4318 117.666 99.3236 117.414 99.0711C117.161 98.8187 117.053 98.5121 117.053 98.1514Z" fill="white"/>
</svg>
