<svg width="483" height="232" viewBox="0 0 483 232" fill="none" xmlns="http://www.w3.org/2000/svg">
<path d="M427.908 152.558C414.349 152.558 402.563 147.447 392.654 137.017C382.641 126.586 377.739 114.07 377.739 99.2592C377.739 84.4483 382.641 71.8278 392.654 61.3976C402.563 50.9674 414.349 45.8566 427.908 45.8566C431.663 45.8566 435.418 46.2738 439.069 47.2125C442.719 48.1512 445.848 49.2985 448.352 50.6545C450.855 52.0104 453.149 53.3663 455.131 54.8265C457.217 56.2868 458.573 57.4341 459.408 58.2685L460.868 59.833V48.0469H482.25L482.25 231.098H460.868L460.868 138.79C459.929 139.728 458.573 140.98 456.8 142.649C455.027 144.213 451.272 146.299 445.431 148.803C439.695 151.306 433.854 152.558 427.908 152.558ZM429.994 65.1524C421.859 65.1524 414.662 68.4901 408.404 75.1654C402.146 81.8408 399.017 89.872 399.017 99.2592C399.017 108.646 402.146 116.782 408.404 123.457C414.662 130.133 421.859 133.47 429.994 133.47C438.13 133.47 445.327 130.133 451.585 123.457C457.843 116.782 460.972 108.646 460.972 99.2592C460.972 89.872 457.843 81.8408 451.585 75.1654C445.327 68.4901 438.13 65.1524 429.994 65.1524Z" fill="#456580"/>
<path d="M363.805 47.9425V150.471H342.423V47.9425H363.805ZM365.995 15.9217C365.995 19.6766 364.743 22.7014 362.344 25.1003C359.841 27.6036 356.816 28.7509 353.166 28.7509C349.411 28.7509 346.386 27.6036 343.987 25.1003C341.484 22.7014 340.337 19.6766 340.337 15.9217C340.337 12.2712 341.484 9.24642 343.987 6.84747C346.386 4.34422 349.411 3.1969 353.166 3.1969C356.816 3.1969 359.841 4.34422 362.344 6.84747C364.743 9.24642 365.995 12.2712 365.995 15.9217Z" fill="#456580"/>
<path d="M278.318 45.7522C291.878 45.7522 303.56 50.9673 313.573 61.3975C323.481 71.8277 328.488 84.344 328.488 99.1549C328.488 113.966 323.481 126.586 313.468 137.016C303.455 147.447 291.773 152.557 278.318 152.557C274.459 152.557 270.704 152.14 267.054 151.202C263.403 150.367 260.274 149.22 257.771 147.864C255.163 146.508 252.869 145.152 250.887 143.692C248.905 142.232 247.549 141.084 246.715 140.25L245.15 138.685V150.471H223.873V0.902344H245.15V59.7287C246.089 58.79 247.445 57.5383 249.323 55.8695C251.096 54.305 254.851 52.2189 260.691 49.6114C266.428 47.1081 272.269 45.7522 278.318 45.7522ZM276.128 133.366C284.264 133.366 291.461 130.028 297.719 123.353C303.977 116.678 307.106 108.646 307.106 99.2592C307.106 89.872 303.977 81.7364 297.719 75.0611C291.461 68.3857 284.264 65.0481 276.128 65.0481C267.993 65.0481 260.796 68.3857 254.538 75.0611C248.279 81.7364 245.15 89.872 245.15 99.2592C245.15 108.646 248.279 116.678 254.538 123.353C260.796 130.028 267.993 133.366 276.128 133.366Z" fill="#456580"/>
<path d="M180.003 150.471V139.833L178.647 141.189C178.022 141.814 176.666 142.857 174.684 144.318C172.702 145.778 170.616 147.029 168.322 148.177C166.027 149.324 163.106 150.367 159.664 151.202C156.118 152.14 152.572 152.557 149.026 152.557C136.614 152.557 126.601 148.594 118.882 140.458C111.164 132.323 107.409 121.475 107.409 107.708V47.9425H128.791V107.708C128.791 115.113 131.086 121.267 135.779 126.065C140.473 130.967 146.314 133.366 153.302 133.366C161.438 133.366 167.904 130.758 172.702 125.543C177.5 120.328 180.003 112.923 180.003 103.431V47.9425H201.385V150.471H180.003Z" fill="#456580"/>
<path d="M0.75 99.2592C0.75 84.8655 5.9651 72.4536 16.6039 61.8148C27.2427 51.176 39.759 45.8566 54.1526 45.8566C62.0796 45.8566 69.5893 47.5254 76.4733 50.9674C83.3572 54.4093 88.2594 57.8513 91.2842 61.2933L95.7691 66.1955L81.897 80.0676C81.1669 78.9203 80.1238 77.5644 78.6636 75.8956C77.2034 74.2267 74.1786 72.0364 69.3807 69.3245C64.5828 66.5084 59.5763 65.1524 54.1526 65.1524C45.3913 65.1524 37.8815 68.3858 31.5191 75.0611C25.1567 81.6322 22.0276 89.6634 22.0276 99.2592C22.0276 108.855 25.1567 116.886 31.5191 123.562C37.8815 130.133 45.3913 133.47 54.1526 133.47C59.5763 133.47 64.5828 132.114 69.3807 129.402C74.1786 126.691 77.6206 123.979 79.7066 121.476L82.94 117.512L96.8122 131.384C96.395 131.906 95.7691 132.636 94.9347 133.679C94.1003 134.722 92.2229 136.391 89.511 138.79C86.6949 141.189 83.7744 143.275 80.7497 145.152C77.6206 147.03 73.6571 148.698 68.8592 150.263C63.957 151.827 59.0548 152.662 54.1526 152.662C39.759 152.662 27.2427 147.342 16.6039 136.704C5.9651 126.065 0.75 113.653 0.75 99.2592Z" fill="#456580"/>
<path d="M410.433 194.943C410.433 199.48 411.919 203.353 414.931 206.56C417.904 209.767 421.345 211.332 425.257 211.332C428.933 211.332 432.258 209.728 435.231 206.521C438.203 203.314 439.69 199.441 439.69 194.943C439.69 190.445 438.203 186.573 435.231 183.366C432.258 180.158 428.933 178.516 425.257 178.516C421.345 178.516 417.864 180.119 414.892 183.327C411.919 186.534 410.433 190.406 410.433 194.943ZM410.433 206.521V230.967H406.834V175.7H410.433V183.327C410.511 183.131 410.707 182.857 410.98 182.466C411.254 182.075 411.841 181.41 412.741 180.393C413.64 179.415 414.618 178.555 415.713 177.851C416.769 177.147 418.138 176.443 419.859 175.817C421.58 175.191 423.379 174.878 425.257 174.878C429.95 174.878 434.096 176.873 437.773 180.784C441.45 184.735 443.288 189.467 443.288 194.943C443.288 200.419 441.45 205.152 437.773 209.063C434.096 212.974 429.95 214.93 425.257 214.93C423.379 214.93 421.58 214.656 419.859 214.07C418.138 213.483 416.769 212.779 415.674 211.997C414.579 211.214 413.601 210.393 412.78 209.533C411.958 208.711 411.372 208.007 411.02 207.42L410.433 206.521Z" fill="#456580"/>
<path d="M393.591 214.148V191.306C393.591 187.395 392.535 184.305 390.501 181.997C388.467 179.689 385.885 178.516 382.795 178.516C379.471 178.516 376.694 179.807 374.503 182.31C372.274 184.852 371.179 188.255 371.179 192.518V214.148H367.58V191.306C367.58 187.395 366.524 184.305 364.49 181.997C362.417 179.689 359.836 178.516 356.746 178.516C353.421 178.516 350.644 179.807 348.454 182.31C346.225 184.852 345.129 188.255 345.129 192.518V214.148H341.531V175.7H345.129V181.293C345.208 181.136 345.364 180.941 345.521 180.628C345.677 180.354 346.107 179.846 346.772 179.063C347.437 178.32 348.18 177.655 349.002 177.108C349.823 176.56 350.918 176.052 352.326 175.582C353.734 175.113 355.182 174.917 356.746 174.917C358.545 174.917 360.227 175.23 361.753 175.856C363.278 176.482 364.49 177.186 365.429 178.046C366.368 178.907 367.15 179.767 367.776 180.628C368.402 181.488 368.871 182.192 369.184 182.779L369.575 183.757C369.653 183.522 369.81 183.209 369.966 182.818C370.123 182.427 370.553 181.723 371.296 180.706C372 179.689 372.822 178.79 373.682 178.007C374.543 177.225 375.794 176.521 377.437 175.895C379.08 175.23 380.84 174.917 382.795 174.917C386.902 174.917 390.344 176.365 393.082 179.337C395.82 182.271 397.189 186.26 397.189 191.306V214.148H393.591Z" fill="#456580"/>
<path d="M313.111 192.518L328.326 190.132C328.326 186.847 327.27 184.07 325.236 181.84C323.163 179.65 320.582 178.516 317.492 178.516C315.38 178.516 313.424 178.985 311.547 179.924C309.669 180.863 308.339 181.801 307.479 182.74L306.306 184.109L303.881 181.723C304.037 181.567 304.233 181.332 304.467 181.019C304.702 180.706 305.289 180.119 306.149 179.337C307.01 178.555 307.948 177.89 308.965 177.264C309.943 176.638 311.195 176.091 312.759 175.621C314.324 175.152 315.888 174.878 317.492 174.878C321.599 174.878 325.041 176.364 327.779 179.259C330.517 182.192 331.925 185.83 331.925 190.132V214.148H328.326V207.733C328.209 207.968 328.013 208.242 327.779 208.555C327.544 208.868 326.996 209.454 326.136 210.276C325.275 211.097 324.376 211.84 323.398 212.466C322.381 213.131 321.09 213.718 319.448 214.187C317.805 214.695 316.084 214.93 314.285 214.93C310.608 214.93 307.557 213.874 305.132 211.723C302.707 209.572 301.495 207.029 301.495 204.135C301.495 201.162 302.512 198.581 304.624 196.469C306.697 194.357 309.513 193.066 313.111 192.518ZM314.285 211.332C318.274 211.332 321.638 210.002 324.298 207.342C326.957 204.682 328.326 201.358 328.326 197.329V193.731L313.894 196.117C308.027 197.095 305.093 199.754 305.093 204.135C305.093 206.091 305.954 207.772 307.675 209.18C309.396 210.628 311.625 211.332 314.285 211.332Z" fill="#456580"/>
<path d="M265.057 194.904C265.057 189.35 266.895 184.657 270.65 180.745C274.405 176.834 278.786 174.917 283.87 174.917C285.748 174.917 287.547 175.191 289.268 175.739C290.989 176.286 292.436 176.99 293.57 177.773C294.666 178.555 295.682 179.298 296.582 180.08C297.443 180.863 298.068 181.528 298.459 182.153L299.124 182.936L296.308 185.361C296.191 185.204 296.034 184.93 295.8 184.618C295.565 184.305 295.096 183.757 294.313 182.975C293.531 182.192 292.71 181.528 291.849 180.902C290.95 180.276 289.776 179.728 288.368 179.259C286.921 178.79 285.435 178.516 283.87 178.516C279.802 178.516 276.243 180.119 273.192 183.327C270.141 186.534 268.655 190.406 268.655 194.943C268.655 199.481 270.181 203.353 273.231 206.56C276.282 209.767 279.802 211.332 283.87 211.332C286.373 211.332 288.642 210.784 290.715 209.611C292.749 208.477 294.235 207.342 295.096 206.208L296.308 204.526L299.124 206.951C298.968 207.186 298.733 207.46 298.459 207.851C298.186 208.242 297.56 208.868 296.621 209.767C295.643 210.667 294.626 211.449 293.57 212.153C292.475 212.857 291.067 213.483 289.307 214.07C287.547 214.656 285.748 214.93 283.87 214.93C278.786 214.93 274.366 213.014 270.65 209.102C266.895 205.191 265.057 200.458 265.057 194.904Z" fill="#456580"/>
<path d="M254.629 211.762C254.629 210.98 254.864 210.315 255.412 209.767C255.959 209.22 256.624 208.946 257.445 208.946C258.228 208.946 258.893 209.22 259.44 209.767C259.949 210.315 260.222 210.98 260.222 211.762C260.222 212.544 259.949 213.209 259.44 213.757C258.893 214.304 258.228 214.539 257.445 214.539C256.624 214.539 255.959 214.304 255.412 213.757C254.864 213.209 254.629 212.544 254.629 211.762Z" fill="#456580"/>
</svg>
